<svg width="50" height="50" viewBox="0 0 50 50" fill="none" xmlns="http://www.w3.org/2000/svg">
<path d="M49.1705 32.2705C49.1678 36.6315 47.537 40.8345 44.5974 44.0559C41.6577 47.2773 37.6212 49.2851 33.2786 49.6858C28.936 50.0866 24.6002 48.8515 21.1207 46.2224C17.6412 43.5934 15.2687 39.7599 14.468 35.473C17.2611 35.9925 20.1387 35.8242 22.8522 34.9825C25.5657 34.1409 28.0335 32.6513 30.0424 30.6424C32.0513 28.6335 33.5409 26.1657 34.3825 23.4522C35.2242 20.7387 35.3925 17.8611 34.873 15.068C38.8894 15.8156 42.5176 17.9449 45.1289 21.0867C47.7402 24.2286 49.17 28.1851 49.1705 32.2705ZM31.6705 14.7705C32.7448 14.7715 33.8168 14.8711 34.873 15.068C34.2901 11.9342 32.8624 9.01911 30.7439 6.63741C28.6254 4.25571 25.8967 2.49781 22.8522 1.55351C19.8077 0.609309 16.5632 0.514509 13.4688 1.27931C10.3744 2.04421 7.54762 3.63971 5.29372 5.89371C3.03972 8.14761 1.44422 10.9744 0.679318 14.0688C-0.0854819 17.1632 0.00931859 20.4077 0.953519 23.4522C1.89782 26.4967 3.65572 29.2254 6.03742 31.3439C8.41912 33.4624 11.3342 34.8901 14.468 35.473C13.9978 32.9471 14.0896 30.3487 14.7368 27.8622C15.384 25.3758 16.5707 23.0624 18.2127 21.0863C19.8548 19.1102 21.9118 17.5199 24.2376 16.4283C26.5635 15.3368 29.1012 14.7708 31.6705 14.7705Z" fill="#BDFF02"/>
</svg>
