<svg width="56" height="57" viewBox="0 0 56 57" fill="none" xmlns="http://www.w3.org/2000/svg">
<mask id="mask0_2_707" style="mask-type:luminance" maskUnits="userSpaceOnUse" x="0" y="0" width="56" height="57">
<path d="M56 0.469971H0V56.47H56V0.469971Z" fill="white"/>
</mask>
<g mask="url(#mask0_2_707)">
<path d="M50.2884 16.2744C49.9688 15.7162 49.5009 15.2574 48.9366 14.9487L29.68 4.40723C29.1653 4.12423 28.5874 3.97583 28 3.97583C27.4126 3.97583 26.8347 4.12423 26.32 4.40723L7.07 14.9465C6.5057 15.2552 6.0378 15.714 5.7181 16.2722C5.4134 16.8005 5.2521 17.3992 5.25 18.009V38.9303C5.2514 39.5569 5.4211 40.1717 5.7412 40.7104C6.0614 41.2491 6.5203 41.692 7.07 41.9928L26.32 52.53C26.8343 52.8142 27.4124 52.9632 28 52.9632C28.5876 52.9632 29.1657 52.8142 29.68 52.53L48.93 41.9928C49.4797 41.692 49.9386 41.2491 50.2588 40.7104C50.5789 40.1717 50.7486 39.5569 50.75 38.9303V18.009C50.7496 17.4005 50.5905 16.8026 50.2884 16.2744ZM26.25 48.5094L19.25 44.6769V33.7197C19.2493 33.4063 19.1645 33.0989 19.0044 32.8296C18.8443 32.5602 18.6149 32.3388 18.34 32.1884L8.75 26.9384V19.9384L26.25 29.5197V48.5094ZM28 26.4747L10.6444 16.9722L18.1869 12.8444L27.1556 17.7553C27.4132 17.8962 27.702 17.9701 27.9956 17.9701C28.2892 17.9701 28.5781 17.8962 28.8356 17.7553L37.8044 12.8444L45.3469 16.9722L28 26.4747ZM47.25 26.934L37.66 32.184C37.3851 32.3344 37.1557 32.5559 36.9956 32.8252C36.8355 33.0946 36.7507 33.402 36.75 33.7153V44.6725L29.75 48.505V29.5065L47.25 19.9253V26.934Z" fill="#BDFF02"/>
</g>
</svg>
