<svg width="57" height="57" viewBox="0 0 57 57" fill="none" xmlns="http://www.w3.org/2000/svg">
<mask id="mask0_2_743" style="mask-type:luminance" maskUnits="userSpaceOnUse" x="0" y="0" width="57" height="57">
<path d="M56.34 0.27002H0.340027V56.27H56.34V0.27002Z" fill="white"/>
</mask>
<g mask="url(#mask0_2_743)">
<path d="M27.9943 5.51968C15.8121 5.70558 5.85463 15.6018 5.58993 27.7906C5.49723 31.8903 6.51942 35.9383 8.54742 39.5025C8.62712 39.6418 8.74353 39.7565 8.88403 39.8341C9.02453 39.9117 9.18362 39.9491 9.34402 39.9424C9.50432 39.9356 9.65973 39.8848 9.79313 39.7957C9.92663 39.7065 10.0329 39.5824 10.1006 39.4368C11.7435 35.9475 12.5929 32.1374 12.5877 28.2806C12.5839 25.9183 13.1132 23.5855 14.1362 21.4561C15.1592 19.3268 16.6495 17.4558 18.4962 15.9825C18.6773 15.8408 18.8845 15.7363 19.1061 15.6748C19.3276 15.6132 19.5591 15.5959 19.7873 15.6239C20.0155 15.6518 20.236 15.7244 20.4361 15.8375C20.6363 15.9507 20.8122 16.1021 20.9538 16.2832C21.0955 16.4644 21.2 16.6716 21.2615 16.8931C21.3231 17.1147 21.3404 17.3462 21.3124 17.5744C21.2845 17.8026 21.2119 18.0231 21.0988 18.2232C20.9856 18.4234 20.8342 18.5993 20.6531 18.7409C19.2255 19.8878 18.0741 21.341 17.2843 22.9931C16.4944 24.6452 16.0862 26.4538 16.0899 28.285C16.0957 33.5387 14.7027 38.6993 12.054 43.2365C11.9558 43.4032 11.9157 43.5978 11.9398 43.7898C11.9639 43.9817 12.051 44.1603 12.1874 44.2975C12.6249 44.735 13.0821 45.1725 13.5546 45.5706C13.6515 45.6519 13.7648 45.7113 13.8868 45.7447C14.0088 45.778 14.1365 45.7845 14.2613 45.7637C14.386 45.7429 14.5048 45.6953 14.6094 45.6242C14.714 45.5531 14.8019 45.4602 14.8671 45.3518C16.8037 42.1369 18.1788 38.6158 18.9337 34.9393C19.0262 34.4845 19.2956 34.085 19.6827 33.8288C20.0698 33.5727 20.5427 33.4807 20.9976 33.5732C21.4524 33.6658 21.8519 33.9352 22.1081 34.3223C22.3643 34.7093 22.4562 35.1823 22.3637 35.6372C21.5175 39.7855 19.958 43.7556 17.7546 47.3709C17.6925 47.4737 17.6522 47.5882 17.6362 47.7072C17.6202 47.8262 17.6289 47.9473 17.6617 48.0628C17.6946 48.1783 17.7508 48.2859 17.827 48.3787C17.9032 48.4716 17.9977 48.5477 18.1046 48.6025C18.6449 48.8759 19.1984 49.1297 19.7606 49.3615C19.9547 49.4447 20.1723 49.4549 20.3733 49.3901C20.5744 49.3254 20.7452 49.1902 20.8543 49.0093C24.6125 42.767 26.5956 35.6173 26.5899 28.3309C26.5854 27.8817 26.7505 27.4473 27.0522 27.1144C27.3538 26.7815 27.7699 26.5746 28.2174 26.535C28.4573 26.5181 28.6981 26.5509 28.9248 26.6313C29.1515 26.7117 29.3591 26.8379 29.5348 27.0021C29.7105 27.1663 29.8505 27.365 29.946 27.5857C30.0415 27.8064 30.0905 28.0445 30.0899 28.285C30.0986 35.7245 28.1999 43.042 24.5752 49.5387C24.5055 49.6631 24.4672 49.8027 24.4637 49.9454C24.4602 50.088 24.4917 50.2293 24.5553 50.3569C24.6189 50.4846 24.7128 50.5948 24.8287 50.6779C24.9447 50.761 25.0792 50.8145 25.2206 50.8337C25.8841 50.9256 26.5557 50.9883 27.2352 51.0218C27.3986 51.0279 27.5604 50.9881 27.7023 50.9069C27.8442 50.8257 27.9605 50.7064 28.0381 50.5625C31.6761 43.7573 33.5828 36.1612 33.5899 28.4447C33.6009 25.5462 31.3368 23.0875 28.4406 23.0328C27.7438 23.0194 27.0514 23.1449 26.4036 23.4019C25.7558 23.659 25.1657 24.0424 24.6677 24.5298C24.1697 25.0173 23.7737 25.599 23.5028 26.2411C23.2319 26.8832 23.0915 27.5728 23.0899 28.2697C23.0867 28.7067 22.9221 29.1271 22.6278 29.4501C22.3334 29.7731 21.9301 29.976 21.4952 30.0197C21.2527 30.0413 21.0083 30.012 20.7778 29.9338C20.5472 29.8556 20.3355 29.7301 20.1561 29.5654C19.9768 29.4007 19.8338 29.2004 19.7363 28.9773C19.6388 28.7541 19.589 28.5131 19.5899 28.2697C19.5899 27.1128 19.8192 25.9674 20.2647 24.8998C20.7101 23.8322 21.3629 22.8635 22.1851 22.0498C23.0074 21.236 23.9829 20.5934 25.0551 20.1592C26.1273 19.7249 27.275 19.5075 28.4318 19.5197C33.2443 19.57 37.1118 23.7131 37.0877 28.5234C37.0664 35.6584 35.5367 42.7084 32.599 49.2106C32.5322 49.3604 32.5089 49.5259 32.5317 49.6883C32.5544 49.8506 32.6223 50.0034 32.7277 50.129C32.8331 50.2547 32.9716 50.3482 33.1275 50.3989C33.2835 50.4496 33.4505 50.4555 33.6096 50.4159C34.3685 50.236 35.1177 50.0169 35.854 49.7597C35.9688 49.7189 36.0737 49.6547 36.1623 49.5711C36.2508 49.4875 36.3209 49.3863 36.3681 49.274C37.3867 46.8599 38.2261 44.374 38.8793 41.8365C38.9368 41.6139 39.0375 41.4048 39.1758 41.2211C39.3141 41.0374 39.4872 40.8827 39.6852 40.7659C39.8833 40.6491 40.1024 40.5725 40.33 40.5403C40.5577 40.5082 40.7895 40.5213 41.0121 40.5787C41.2347 40.6362 41.4439 40.7369 41.6276 40.8752C41.8113 41.0135 41.9659 41.1866 42.0827 41.3846C42.1995 41.5827 42.2762 41.8018 42.3083 42.0295C42.3404 42.2571 42.3274 42.4889 42.2699 42.7115C42.1066 43.3488 41.9316 43.9832 41.7449 44.6147C41.69 44.7965 41.6957 44.9912 41.7612 45.1695C41.8267 45.3478 41.9484 45.4999 42.108 45.6029C42.2676 45.7059 42.4563 45.7542 42.6457 45.7405C42.8352 45.7268 43.015 45.6518 43.1581 45.5268C46.7055 42.4806 49.2282 38.4153 50.3827 33.8842C51.5372 29.3531 51.2675 24.5763 49.6102 20.204C47.953 15.8316 44.9888 12.0761 41.1209 9.44858C37.2531 6.82108 32.6696 5.44918 27.9943 5.51968ZM43.6524 35.5059C43.5992 35.9282 43.394 36.3166 43.0751 36.5984C42.7562 36.8803 42.3455 37.0362 41.9199 37.0372C41.8468 37.0371 41.7738 37.0328 41.7012 37.024C41.4731 36.9956 41.2528 36.9226 41.0529 36.809C40.8531 36.6955 40.6775 36.5437 40.5363 36.3623C40.3952 36.1809 40.2911 35.9734 40.2301 35.7518C40.1691 35.5302 40.1524 35.2987 40.1809 35.0706C40.4599 32.8209 40.6001 30.5562 40.6009 28.2893C40.5962 25.0419 39.3041 21.9287 37.0078 19.6324C34.7115 17.3361 31.5983 16.044 28.3509 16.0393C27.839 16.0391 27.3276 16.0705 26.8196 16.1334C26.3587 16.1914 25.8936 16.064 25.5266 15.779C25.1597 15.4941 24.9209 15.0751 24.8629 14.6142C24.8049 14.1532 24.9323 13.6881 25.2173 13.3212C25.5022 12.9542 25.9212 12.7155 26.3821 12.6575C28.5995 12.3816 30.8502 12.5801 32.9851 13.2398C35.12 13.8994 37.0903 15.0052 38.7656 16.4838C40.4409 17.9624 41.7829 19.7801 42.7027 21.8165C43.6225 23.8528 44.0991 26.0614 44.1009 28.2959C44.1003 30.7062 43.9506 33.1141 43.6524 35.5059Z" fill="#BDFF02"/>
</g>
</svg>
