<svg width="195" height="188" viewBox="0 0 195 188" fill="none" xmlns="http://www.w3.org/2000/svg">
<g filter="url(#filter0_f_86_3)">
<rect x="31.5" y="32.05" width="132" height="124" rx="62" fill="#E2FA06" fill-opacity="0.1"/>
</g>
<g clip-path="url(#clip0_86_3)">
<path d="M59.2542 85.0501L56.1229 69.0911L70.5 76.9683L63.4181 79.0229L59.2542 85.0501Z" fill="black"/>
<path d="M59.2542 85.0501L56.1229 69.0911L70.5 76.9683L63.4181 79.0229L59.2542 85.0501Z" stroke="white"/>
</g>
<g filter="url(#filter1_d_86_3)">
<path d="M68.5 87.05C68.5 85.9455 69.3954 85.05 70.5 85.05H114.5C123.889 85.05 131.5 92.6612 131.5 102.05C131.5 111.439 123.889 119.05 114.5 119.05H92.5C79.2452 119.05 68.5 108.305 68.5 95.05V87.05Z" fill="#DDFF00" shape-rendering="crispEdges"/>
<path opacity="0.8" d="M82.9482 107V96.0909H90.299V97.9925H85.2546V100.592H89.9208V102.494H85.2546V105.098H90.3203V107H82.9482ZM94.2093 96.0909V107H91.9401V96.0909H94.2093ZM95.877 107V98.8182H98.1462V107H95.877ZM97.0169 97.7635C96.6796 97.7635 96.3902 97.6516 96.1487 97.4279C95.9108 97.2006 95.7918 96.929 95.7918 96.6129C95.7918 96.3004 95.9108 96.0323 96.1487 95.8086C96.3902 95.5813 96.6796 95.4677 97.0169 95.4677C97.3543 95.4677 97.6419 95.5813 97.8799 95.8086C98.1213 96.0323 98.2421 96.3004 98.2421 96.6129C98.2421 96.929 98.1213 97.2006 97.8799 97.4279C97.6419 97.6516 97.3543 97.7635 97.0169 97.7635ZM102.147 107.154C101.625 107.154 101.16 107.064 100.751 106.883C100.343 106.698 100.02 106.426 99.782 106.068C99.5476 105.706 99.4304 105.255 99.4304 104.715C99.4304 104.26 99.5139 103.879 99.6808 103.57C99.8477 103.261 100.075 103.012 100.363 102.824C100.65 102.636 100.977 102.494 101.343 102.398C101.712 102.302 102.099 102.234 102.504 102.195C102.98 102.146 103.363 102.099 103.654 102.057C103.946 102.011 104.157 101.943 104.288 101.854C104.42 101.766 104.485 101.634 104.485 101.46V101.428C104.485 101.091 104.379 100.83 104.166 100.645C103.956 100.461 103.658 100.368 103.271 100.368C102.863 100.368 102.538 100.459 102.296 100.64C102.055 100.817 101.895 101.041 101.817 101.311L99.7181 101.141C99.8246 100.643 100.034 100.214 100.347 99.8516C100.659 99.4858 101.062 99.2053 101.556 99.0099C102.053 98.8111 102.628 98.7116 103.282 98.7116C103.736 98.7116 104.171 98.7649 104.587 98.8714C105.006 98.978 105.377 99.1431 105.7 99.3668C106.027 99.5906 106.284 99.8782 106.472 100.23C106.661 100.578 106.755 100.995 106.755 101.482V107H104.603V105.865H104.539C104.407 106.121 104.232 106.347 104.011 106.542C103.791 106.734 103.527 106.885 103.218 106.995C102.909 107.101 102.552 107.154 102.147 107.154ZM102.797 105.588C103.131 105.588 103.425 105.523 103.681 105.391C103.937 105.256 104.137 105.075 104.283 104.848C104.429 104.621 104.501 104.363 104.501 104.076V103.207C104.43 103.254 104.333 103.296 104.208 103.335C104.088 103.371 103.951 103.404 103.798 103.436C103.646 103.465 103.493 103.491 103.34 103.516C103.188 103.538 103.049 103.557 102.925 103.575C102.658 103.614 102.426 103.676 102.227 103.761C102.028 103.847 101.874 103.962 101.764 104.108C101.653 104.25 101.598 104.427 101.598 104.64C101.598 104.949 101.71 105.185 101.934 105.349C102.161 105.509 102.449 105.588 102.797 105.588ZM110.634 102.27V107H108.365V96.0909H110.57V100.262H110.666C110.851 99.7788 111.149 99.4006 111.561 99.1271C111.973 98.8501 112.49 98.7116 113.111 98.7116C113.679 98.7116 114.175 98.8359 114.597 99.0845C115.023 99.3295 115.354 99.6829 115.588 100.145C115.826 100.603 115.943 101.151 115.94 101.79V107H113.671V102.195C113.674 101.691 113.546 101.299 113.287 101.018C113.031 100.738 112.673 100.597 112.211 100.597C111.902 100.597 111.629 100.663 111.391 100.794C111.156 100.926 110.972 101.118 110.837 101.37C110.705 101.618 110.638 101.918 110.634 102.27Z" fill="black"/>
</g>
<defs>
<filter id="filter0_f_86_3" x="0.388901" y="0.93895" width="194.222" height="186.222" filterUnits="userSpaceOnUse" color-interpolation-filters="sRGB">
<feFlood flood-opacity="0" result="BackgroundImageFix"/>
<feBlend mode="normal" in="SourceGraphic" in2="BackgroundImageFix" result="shape"/>
<feGaussianBlur stdDeviation="15.5555" result="effect1_foregroundBlur_86_3"/>
</filter>
<filter id="filter1_d_86_3" x="62.5" y="79.05" width="83" height="54" filterUnits="userSpaceOnUse" color-interpolation-filters="sRGB">
<feFlood flood-opacity="0" result="BackgroundImageFix"/>
<feColorMatrix in="SourceAlpha" type="matrix" values="0 0 0 0 0 0 0 0 0 0 0 0 0 0 0 0 0 0 127 0" result="hardAlpha"/>
<feOffset dx="4" dy="4"/>
<feGaussianBlur stdDeviation="5"/>
<feComposite in2="hardAlpha" operator="out"/>
<feColorMatrix type="matrix" values="0 0 0 0 0.486275 0 0 0 0 0.831373 0 0 0 0 0.992157 0 0 0 0.16 0"/>
<feBlend mode="normal" in2="BackgroundImageFix" result="effect1_dropShadow_86_3"/>
<feBlend mode="normal" in="SourceGraphic" in2="effect1_dropShadow_86_3" result="shape"/>
</filter>
<clipPath id="clip0_86_3">
<rect width="20" height="20" fill="white" transform="translate(50.5 65.05)"/>
</clipPath>
</defs>
</svg>
