<svg style="width:100%;height:100%" viewBox="0 0 155 34" preserveAspectRatio="none" width="100%" height="100%"><use href="#svg1521651506_4028">
  <svg width="155" height="34" fill="none" id="svg1521651506_4028"><g clip-path="url(#svg1521651506_4028_a)" fill="#3e3e3e"><path d="M41.975 6.979h2.612v7.227c1.085-1.585 2.502-2.335 4.253-2.335 2.39 0 3.753 1.306 3.753 3.891v8.868H49.98v-8.173c0-1.779-.667-2.307-1.973-2.307-.807 0-1.585.473-2.308 1.418-.722.945-1.111 2.196-1.111 3.752v5.31h-2.613V6.979ZM65.77 19.098h-8.951c0 1.974 1.14 3.475 3.113 3.475 1.418 0 2.696-.778 3.308-2.113l2.224.862c-1.279 2.474-2.752 3.558-5.532 3.558-4.142 0-5.893-3.502-5.893-6.476 0-2.975 1.724-6.477 5.893-6.477 4.03 0 5.81 3.28 5.81 6.06v1.111h.027Zm-8.868-2.168h6.115c-.222-1.584-1.278-2.724-3.057-2.724-1.668-.055-2.752 1.084-3.058 2.724ZM86.2 11.87c.612 0 1.251.168 1.918.501.668.334 1.14.667 1.474 1.084V6.98h2.612v17.65h-2.612v-1.445c-.5.806-1.89 1.668-3.447 1.668-3.697 0-5.643-2.39-5.643-6.477.056-4.002 2.001-6.504 5.698-6.504Zm-2.918 6.478c0 1.278.306 2.307.89 3.057.583.75 1.39 1.112 2.334 1.112.945 0 1.724-.39 2.335-1.112.584-.778.89-1.779.89-3.058 0-1.278-.306-2.307-.89-3.03-.584-.778-1.39-1.14-2.335-1.14-.945 0-1.723.39-2.335 1.14-.584.723-.89 1.78-.89 3.03Zm18.873-4.503-1.64 1.445c-.584-.778-1.334-1.14-2.196-1.14-.695 0-1.25.473-1.25 1.251 0 .278.138.556.333.779.445.444.834.611 1.918 1.028.861.334 1.25.473 1.945.917 1.001.584 1.474 1.362 1.585 2.697a3.739 3.739 0 0 1-1.195 2.835c-.807.778-1.835 1.14-3.169 1.14-2.418 0-4.086-1.557-4.892-3.364l2.196-1.195c.667 1.529 1.584 2.28 2.78 2.28 1.14 0 1.695-.529 1.695-1.64 0-.446-.167-.724-.64-1.002a4.74 4.74 0 0 0-.639-.36c-.389-.168-1.306-.501-1.695-.668-1.807-.75-2.724-1.89-2.724-3.447a3.253 3.253 0 0 1 1.112-2.53c.722-.694 1.64-1.056 2.78-1.056 1.5.056 2.89.806 3.696 2.03Zm8.367 10.98c-1.473 0-2.752-.695-3.391-1.585v6.477h-2.613v-17.65h2.613v1.417c.5-.806 1.89-1.64 3.446-1.64 3.697 0 5.643 2.39 5.643 6.476 0 4.031-1.973 6.505-5.698 6.505Zm2.918-6.449c0-1.279-.305-2.307-.889-3.03-.584-.778-1.39-1.14-2.335-1.14-.945 0-1.723.39-2.335 1.14-.584.75-.889 1.751-.889 3.03s.305 2.307.889 3.058c.584.75 1.39 1.111 2.335 1.111.945 0 1.723-.389 2.335-1.111.611-.779.889-1.807.889-3.058Zm28.574 3.002c-1.029 2.335-2.835 3.475-5.448 3.475-1.891 0-3.392-.612-4.42-1.835-1.029-1.25-1.529-2.78-1.529-4.642 0-1.862.5-3.391 1.529-4.614 1.028-1.251 2.502-1.863 4.42-1.863 2.64 0 4.419 1.14 5.448 3.475l-2.335 1c-.639-1.445-1.696-2.167-3.113-2.167-2.113 0-3.169 1.667-3.169 4.197 0 2.53 1.056 4.197 3.169 4.197 1.445 0 2.474-.723 3.113-2.168l2.335.945Zm12.593-2.28h-8.95c0 1.974 1.139 3.475 3.113 3.475a3.621 3.621 0 0 0 3.308-2.113l2.224.862c-1.279 2.474-2.752 3.558-5.532 3.558-4.142 0-5.893-3.502-5.893-6.476 0-2.975 1.724-6.477 5.893-6.477 4.031 0 5.81 3.28 5.81 6.06v1.111h.027Zm-8.867-2.168h6.115c-.222-1.584-1.278-2.724-3.057-2.724-1.668-.055-2.752 1.084-3.058 2.724ZM72.939 11.9c.611 0 1.25.166 1.918.5.667.333 1.14.667 1.473 1.084v-1.39h2.613v12.592h-2.168l-.445-1.445c-.5.806-1.89 1.667-3.447 1.667-3.697 0-5.643-2.39-5.643-6.476 0-4.03 1.974-6.533 5.699-6.533Zm-2.947 6.476c0 1.279.306 2.307.89 3.058.583.75 1.39 1.112 2.335 1.112.945 0 1.723-.39 2.335-1.112.583-.779.889-1.78.889-3.058 0-1.279-.306-2.307-.89-3.03-.583-.778-1.39-1.14-2.334-1.14-.945 0-1.724.39-2.335 1.14-.584.723-.89 1.751-.89 3.03Zm53.149-6.476c.612 0 1.251.166 1.918.5.667.333 1.14.667 1.474 1.084v-1.39h2.612v12.592h-2.168l-.444-1.445c-.501.806-1.891 1.667-3.447 1.667-3.697 0-5.643-2.39-5.643-6.476 0-4.03 1.974-6.533 5.698-6.533Zm-2.946 6.476c0 1.279.306 2.307.889 3.058.584.75 1.39 1.112 2.335 1.112.945 0 1.724-.39 2.335-1.112.584-.779.89-1.78.89-3.058 0-1.279-.306-2.307-.89-3.03-.583-.778-1.39-1.14-2.335-1.14-.945 0-1.723.39-2.335 1.14-.583.723-.889 1.751-.889 3.03Zm-86.281-1.612c.389 5.337-2.113 8.367-3.614 10.48-2.335 2.446-5.281 5.781-12.814 5.976-6.394.25-9.507-2.558-12.12-4.948C1.92 24.519 1.03 22.296.891 16.792c-.028-3.391 1.307-6.755 3.586-9.73C7.673 2.56 12.816 1.032 17.514.698c4.947-.166 8.895 2.308 11.59 4.976 3.392 3.586 4.476 6.671 4.81 11.091Z"></path></g><defs><clipPath id="svg1521651506_4028_a"><path fill="#3e3e3e" d="M0 0h155v34H0z"></path></clipPath></defs></svg>
</use></svg>