<svg width="61" height="62" viewBox="0 0 61 62" fill="none" xmlns="http://www.w3.org/2000/svg">
<g clip-path="url(#clip0_2_187)">
<g clip-path="url(#clip1_2_187)">
<path d="M57.9131 27.1309L43.2541 19.6889C42.6481 19.3369 42.1461 18.8289 41.7971 18.2179L34.4271 3.41791C33.6551 1.86191 32.1131 0.909912 30.4861 0.909912C28.7711 0.909912 27.2281 1.86191 26.5431 3.41891L19.1701 18.2179C18.8211 18.8289 18.3191 19.3369 17.7131 19.6889L3.05407 27.1309C1.51307 27.8229 0.570068 29.3809 0.570068 31.1119C0.570068 32.8419 1.51307 34.3999 3.05507 35.0919L17.7131 42.5339C18.3131 42.8809 18.8271 43.3989 19.1701 44.0049L26.5421 58.8039C27.3131 60.3609 28.8551 61.3129 30.4851 61.3129C32.1981 61.3129 33.7421 60.3609 34.4271 58.8039L41.7981 44.0049C42.1421 43.3989 42.6551 42.8809 43.2551 42.5339L57.9131 35.0919C59.4551 34.3129 60.3981 32.7559 60.3981 31.1119C60.3981 29.3809 59.4551 27.8229 57.9131 27.1309ZM37.5131 35.6979C37.5131 36.3909 36.9131 36.9969 36.2271 36.9969C35.5421 36.9969 34.9421 36.3909 34.9421 35.6979V29.1219L31.2551 32.0629C30.8271 32.4099 30.1421 32.4099 29.6271 32.0629L25.9421 29.1219V35.6979C25.9421 36.3909 25.3421 36.9969 24.6551 36.9969C23.9701 36.9969 23.3701 36.3909 23.3701 35.6979V26.5249C23.3701 26.0059 23.6271 25.5729 24.0551 25.3999C24.4851 25.2269 24.9981 25.2269 25.4271 25.5729L30.3131 29.5539L35.1981 25.5729C35.5421 25.2269 36.1421 25.2269 36.5701 25.3999C36.9981 25.5729 37.2551 26.0929 37.2551 26.5249V35.6979H37.5131Z" fill="#3e3e3e"/>
<path d="M56.6281 25.0529L57.3131 24.2739C58.4281 22.9769 58.6851 21.1589 58.0851 19.6009C57.3981 18.0449 55.9421 16.9189 54.3131 16.8329L53.2851 16.7459L51.3981 22.3709L56.6281 25.0529ZM44.7131 8.09188L44.6281 7.05388C44.5351 5.34988 43.4611 3.85988 41.8851 3.24588C41.3701 2.98688 40.7701 2.90088 40.1701 2.90088C39.1421 2.90088 38.1131 3.33288 37.2561 4.02488L36.4851 4.71788L39.1421 9.99588L44.7131 8.09188ZM42.9131 17.6979C43.0851 18.0449 43.4281 18.3899 43.7701 18.5629L50.2001 21.8509L52.6851 14.4099C53.2011 12.7909 52.7701 11.0169 51.5701 9.82288C50.7131 8.95788 49.6001 8.52388 48.4001 8.52388C47.9021 8.52688 47.4091 8.61488 46.9421 8.78488L39.5701 11.2929L42.9131 17.6979ZM24.4861 4.71788L23.7141 4.02488C22.9041 3.31688 21.8731 2.91888 20.8011 2.90088C20.2011 2.90088 19.6011 2.98688 19.0861 3.24588C17.5431 3.93888 16.4291 5.40988 16.3431 7.05388L16.2581 8.09188L21.8281 9.99588L24.4861 4.71788ZM10.6861 21.7649L17.1141 18.4769C17.4581 18.3039 17.8011 17.9569 17.9711 17.6109L21.2291 11.1209L13.9431 8.69788C13.4771 8.52088 12.9831 8.43288 12.4861 8.43788C11.2861 8.43788 10.1711 8.87088 9.31407 9.73588C8.11407 10.9479 7.68607 12.6789 8.20107 14.3229L10.6861 21.7649ZM4.34307 25.0529L9.57007 22.3709L7.68607 16.7459L6.65807 16.8329C4.97107 16.9269 3.49507 18.0099 2.88607 19.6009C2.20107 21.1589 2.54307 22.9769 3.65807 24.2739L4.34307 25.0529ZM18.0561 44.5249C17.8631 44.1559 17.5651 43.8549 17.2001 43.6589L10.7701 40.3709L8.28607 47.8129C7.77007 49.4319 8.20107 51.2059 9.40107 52.3999C10.2561 53.2649 11.3701 53.6959 12.5701 53.6959C13.0671 53.6939 13.5601 53.6069 14.0281 53.4369L21.4001 50.9269L18.0561 44.5249ZM16.2561 54.1299L16.3421 55.1679C16.4351 56.8719 17.5081 58.3619 19.0851 58.9759C20.6281 59.5819 22.4281 59.3229 23.7131 58.1969L24.4851 57.5049L21.8281 52.2269L16.2561 54.1299ZM4.34207 37.1689L3.65607 37.9479C2.54207 39.2459 2.28507 41.0639 2.88507 42.6199C3.57007 44.1789 5.02807 45.3039 6.65607 45.3899L7.68507 45.4759L9.57007 39.8519L4.34207 37.1689ZM36.4861 57.5049L37.2581 58.1969C38.5431 59.3229 40.3431 59.5819 41.8861 58.9759C43.4291 58.2839 44.5431 56.8139 44.6291 55.1679L44.7141 54.1299L39.1431 52.2269L36.4861 57.5049ZM50.2011 40.4579L43.7701 43.7459C43.4051 43.9409 43.1071 44.2429 42.9131 44.6109L39.7421 51.1009L47.1131 53.6109C47.5421 53.7849 48.0561 53.8709 48.5701 53.8709C49.7701 53.8709 50.8851 53.4379 51.7421 52.5729C52.9421 51.3619 53.3701 49.6299 52.8561 47.9859L50.1981 40.4579H50.2011ZM56.6291 37.1689L51.4001 39.8519L53.2861 45.4759L54.3141 45.3899C56.0021 45.2959 57.4781 44.2119 58.0861 42.6199C58.7711 41.0639 58.4291 39.2459 57.3141 37.9479L56.6291 37.1689Z" fill="#3e3e3e"/>
</g>
</g>
<defs>
<clipPath id="clip0_2_187">
<rect width="60" height="61" fill="white" transform="translate(0.570068 0.909912)"/>
</clipPath>
<clipPath id="clip1_2_187">
<rect width="60" height="61" fill="white" transform="translate(0.570068 0.909912)"/>
</clipPath>
</defs>
</svg>
