<svg style="width:100%;height:100%" viewBox="0 0 200 30" preserveAspectRatio="none" width="100%" height="100%"><use href="#svg1126983397_1749">
  <svg width="200" height="30" fill="none" id="svg1126983397_1749"><g clip-path="url(#svg1126983397_1749_a)" fill="#7D7F78"><path d="M62.075 13.991H46.576v15.5h15.5v-15.5ZM.08 29.49V15.845L15.495.43H29.14v13.645L13.725 29.49H.08Z"></path><path d="M23.328 29.49V15.845L38.743.43H52.39v13.645L36.973 29.49H23.329Zm71.025-8.644-7.931-18.23h-6.406V26.94H84.8l.01-16.392 7.237 16.392h4.611l7.247-16.389v16.39h4.785V2.614h-6.41l-7.927 18.23Zm25.892-12.129c-7.976 0-9.649 4.988-9.649 9.17 0 6.39 3.187 9.494 9.743 9.494 6.556 0 9.681-3.078 9.681-9.408s-3.289-9.26-9.771-9.26l-.004.004Zm-4.677 9.084c0-3.196.722-4.82 4.677-4.82 3.681 0 4.802 1.18 4.802 5.058s-1.107 5.087-4.739 5.087c-3.632 0-4.74-1.243-4.74-5.322v-.003Zm27.008-9.054h-.094c-2.872.013-5.115 2.06-5.705 2.989v-9.12h-4.847V26.94h4.847v-.165l.024-2.32c.788 1.285 2.896 2.928 5.653 2.928 6.024 0 8.597-2.733 8.597-9.14 0-6.406-2.614-9.494-8.475-9.494v-.003Zm3.597 9.14c0 4.84-2.233 5.233-4.931 5.233s-4.868-.387-4.868-5.117c0-3.597 1.382-4.998 4.931-4.998 3.548 0 4.868 1.23 4.868 4.879v.003Zm17.444-9.14h-.094c-2.871.013-5.115 2.06-5.705 2.989v-9.12h-4.847V26.94h4.847v-.165l.024-2.32c.789 1.282 2.896 2.925 5.654 2.925 6.024 0 8.597-2.734 8.597-9.14 0-6.406-2.615-9.494-8.476-9.494Zm3.597 9.14c0 4.84-2.233 5.233-4.93 5.233-2.699 0-4.869-.387-4.869-5.117 0-3.597 1.382-4.998 4.931-4.998 3.548 0 4.868 1.23 4.868 4.879v.003Zm11.78-8.757h-4.848v17.812h4.848V9.13Zm12.988-.39c-2.692 0-4.865 1.69-5.563 2.995V9.131h-4.847v17.81h4.847v-10.38c0-2.326.691-3.437 4.621-3.437 2.977 0 4.032.929 4.032 3.553v10.261h4.847v-9.2c0-6.693-2.003-8.964-7.937-9v.003Zm-12.988-6.125h-4.848V7.23h4.848V2.615Z"></path></g><defs><clipPath id="svg1126983397_1749_a"><path fill="#7D7F78" transform="translate(0 .43)" d="M0 0h200v29.14H0z"></path></clipPath></defs></svg>
</use></svg>