<svg width="154" height="35" viewBox="0 0 154 35" fill="none" xmlns="http://www.w3.org/2000/svg">
<g opacity="0.2" clip-path="url(#clip0_2_194)">
<g clip-path="url(#clip1_2_194)">
<g clip-path="url(#clip2_2_194)">
<path d="M6.49806 1.94592V2.72392H9.34306V17.8529C9.34306 22.3999 8.10706 23.6799 5.35106 23.6799C3.61806 23.6799 3.33206 22.3369 3.33206 21.6409C3.33206 19.9879 3.24206 18.9749 1.76606 18.9749C0.281056 18.9749 0.107056 20.5049 0.107056 20.9719C0.107056 23.0549 1.01506 24.6509 5.07406 24.6509C9.90906 24.6509 12.4941 22.9839 12.4941 17.4519V2.72192L15.4341 2.72592V1.94792H6.49806V1.94592ZM15.3911 21.6489C15.0521 21.9829 14.8651 22.4419 14.8751 22.9189C14.8751 23.4189 15.0461 23.8319 15.3951 24.1629C15.7411 24.5099 16.1541 24.6779 16.6351 24.6779C17.1251 24.6779 17.5381 24.5099 17.8921 24.1629C18.2321 23.8319 18.4061 23.4189 18.4061 22.9189C18.4061 22.4089 18.2321 21.9939 17.8921 21.6489C17.5511 21.2999 17.1401 21.1379 16.6351 21.1379C16.1371 21.1379 15.7251 21.2999 15.3911 21.6489ZM35.2361 21.6489C34.9021 21.9849 34.7201 22.4439 34.7321 22.9189C34.7321 23.4189 34.8961 23.8319 35.2361 24.1629C35.5981 24.5099 35.9991 24.6779 36.4811 24.6779C36.9791 24.6779 37.3951 24.5099 37.7451 24.1629C38.0901 23.8319 38.2611 23.4189 38.2611 22.9189C38.2611 22.4089 38.0901 21.9939 37.7481 21.6489C37.4001 21.2999 36.9831 21.1379 36.4801 21.1379C35.9891 21.1379 35.5751 21.2999 35.2361 21.6489ZM21.5041 1.94792V2.72492H24.0741V19.9809C24.0741 21.3389 23.9921 21.6909 23.8441 22.0829C23.6841 22.5229 23.3251 22.8679 22.7941 23.0939C22.3981 23.2639 21.7981 23.3539 20.9991 23.3759V24.0899H30.4181V23.3829C29.6201 23.3619 29.0111 23.2699 28.6121 23.1249C28.0501 22.8989 27.6851 22.5659 27.5071 22.1139C27.3521 21.7249 27.2721 21.3829 27.2721 20.7009V14.7919L29.6021 14.7809C36.3721 14.7809 38.2751 12.0569 38.2751 8.33892C38.2751 4.57992 37.1061 1.94592 30.2521 1.94592L21.5041 1.94792ZM27.2721 2.82392L28.8911 2.80092C34.1111 2.80092 35.2521 4.99192 35.2521 8.54192C35.2521 12.1149 33.1981 13.9369 29.0581 13.9369H27.2721V2.82392ZM62.7121 1.99792C62.6331 2.20292 56.0781 18.8659 56.0781 18.8659L55.9291 18.9659L55.7711 18.8659C55.7711 18.8659 48.7861 2.20292 48.7051 1.99892H42.5411V2.71092H45.2171V19.8489L45.1591 21.4099C45.1271 21.7919 45.0011 22.1599 44.7921 22.4819C44.5841 22.8009 44.2451 23.0429 43.8041 23.2019C43.5141 23.2989 43.0811 23.3639 42.5411 23.3769V24.0899H48.6591V23.3849C48.1381 23.3639 47.9131 23.3119 47.6081 23.2079C47.1581 23.0579 46.8221 22.8289 46.5991 22.5039C46.3881 22.1749 46.2601 21.7999 46.2261 21.4109L46.1591 19.8489V5.04592H46.5171C46.5171 5.04592 54.4281 23.8829 54.5111 24.0899H55.1711L62.6571 5.25692H62.8461V20.5179C62.8461 21.1719 62.7811 21.6759 62.6571 22.0659C62.5101 22.5239 62.1911 22.8679 61.7281 23.1019C61.3841 23.2569 60.8611 23.3489 60.1721 23.3769V24.0899H68.7071V23.3769C68.0261 23.3419 67.4981 23.2489 67.1401 23.0849C66.6441 22.8389 66.3221 22.4819 66.1821 22.0269C66.0581 21.6269 65.9981 21.1409 65.9981 20.5179V2.72592L68.2671 2.70292V1.99892H62.7121V1.99792ZM70.2511 16.3319C70.2511 24.2189 76.2661 24.7399 77.563 24.7399C80.134 24.7399 85.007 23.1039 85.007 16.1849C85.007 10.8009 81.8891 7.87192 77.6661 7.87192C73.1101 7.87192 70.2511 10.9519 70.2511 16.3319ZM73.6531 16.4209C73.6531 12.0969 73.9171 8.85192 77.6051 8.85192C81.5911 8.85192 81.6091 12.2099 81.6091 16.1489C81.6091 21.8089 80.6611 23.7619 77.6051 23.7619C74.1811 23.7619 73.6531 22.0159 73.6531 16.4209ZM92.5991 11.4279L92.3861 11.4199C92.3631 11.4279 91.993 8.98792 91.8531 8.26992C90.7911 8.26992 86.5801 8.25892 86.5801 8.25892V9.08392H89.4341C89.4341 9.08392 89.4171 11.5559 89.4171 12.4469V20.0159C89.4171 21.1009 89.299 21.8549 89.0711 22.3139C88.7781 22.8549 88.1251 23.1259 87.0411 23.1259H86.5801V24.0899H95.4171V23.1259H94.9421C93.7811 23.1259 93.2811 22.8679 92.9701 22.3549C92.6881 21.9039 92.563 21.1379 92.563 20.0159V14.3399C92.563 12.4249 93.9761 10.2449 95.6701 10.2449C97.44 10.2449 97.3981 13.0269 99.4041 11.9079C100.494 11.2989 100.31 8.11292 96.9251 8.11292C94.2011 8.11292 93.3511 9.75492 92.5991 11.4279ZM120.193 9.09092C119.184 9.87492 118.791 10.5999 118.791 11.6359C118.791 12.1169 118.917 12.4569 119.184 12.6859C119.449 12.9269 119.762 13.0379 120.146 13.0379C121.024 13.0379 121.517 12.5819 121.7 11.4039C121.835 10.5289 122.021 10.0299 122.444 9.57492C122.894 9.09092 123.601 8.84992 124.552 8.84992C125.661 8.84992 126.445 9.15392 126.886 9.76392C127.288 10.3359 127.502 11.1129 127.502 12.0749V14.7299C124.67 14.9899 117.984 15.5389 118.281 20.7339C118.393 22.7659 120.151 24.5509 122.421 24.5509C124.931 24.5509 126.519 23.0919 127.598 21.9259C127.771 23.0309 128.777 24.3529 130.606 24.3529C132.664 24.3529 133.893 23.3229 134.036 20.7499H133.508C133.369 21.8689 132.691 22.4729 132.132 22.4729C131.186 22.4729 130.886 21.9349 130.816 21.0419L130.76 19.0149V12.3829C130.76 10.9519 130.534 9.98992 129.706 9.14592C128.892 8.30192 127.316 7.87092 125.037 7.87092C122.849 7.87092 121.225 8.28292 120.193 9.09092ZM121.375 20.1249C121.375 17.1769 125.333 15.7029 127.502 15.7029V20.7959L127.449 20.9219L127.383 20.9849C125.868 22.3869 124.712 22.8869 123.866 22.8869C121.7 22.8869 121.375 21.0459 121.375 20.1249ZM140.257 11.1279L139.973 11.1169L139.419 8.23992L134.615 8.23092V9.05692C135.517 9.09492 137.022 9.11192 137.022 9.11192V19.9979C137.022 20.8439 136.957 21.4529 136.834 21.8559C136.706 22.3379 136.399 22.6739 135.947 22.8679C135.655 22.9969 135.198 23.0679 134.615 23.0929V24.0899H142.253V23.0859C141.485 23.0229 140.967 22.8109 140.691 22.4099C140.393 21.9819 140.257 21.2469 140.257 20.1719V15.9899C140.257 14.2409 140.247 12.5519 140.832 11.5069C141.463 10.3669 142.619 9.73992 143.912 9.73992C145.075 9.73992 145.687 10.1199 146.072 10.8729C146.384 11.4849 146.587 13.3089 146.587 14.5639L146.55 19.7449C146.55 20.6079 146.657 21.2469 146.587 21.6559C146.501 22.1329 146.29 22.5049 145.922 22.7509C145.655 22.9399 145.236 23.0369 144.697 23.0769V24.0899H152.06V23.0929C151.128 23.0319 150.518 22.8009 150.252 22.3579C149.949 21.9049 149.699 21.1419 149.699 20.0059L149.741 12.8329C149.741 11.7969 149.605 10.9099 149.223 10.1809C148.861 9.49892 148.303 8.94192 147.621 8.58292C146.935 8.23092 146.15 8.05692 145.288 8.05692C142.182 8.05692 140.936 9.99092 140.257 11.1279ZM115.665 7.23192C115.209 7.37992 114.907 7.79392 114.747 8.49192C114.627 9.13592 114.387 9.50892 114.069 9.61392C113.748 9.70892 113.391 9.68192 112.966 9.53392C112.175 8.78392 110.657 7.87192 107.983 7.87192C103.68 7.87192 101.784 10.9989 101.784 13.8519C101.784 17.1919 103.041 18.8089 105.81 19.4029C105.977 19.4389 105.977 19.6279 105.832 19.6629C103.471 20.1509 101.378 20.8549 101.378 23.1449C101.378 24.5239 102.155 25.2799 103.149 25.6929C104.245 26.1479 105.787 26.3839 107.722 26.4179C109.415 26.4379 110.615 26.4989 111.395 26.5939C112.24 26.6929 112.909 26.9379 113.402 27.3049C113.911 27.7069 114.18 28.2989 114.18 29.0719C114.18 30.1309 113.625 30.9839 112.518 31.6149C111.489 32.2019 110.08 32.5089 108.329 32.5089C106.827 32.5089 105.599 32.3409 104.488 31.6359C103.668 31.1169 103.507 30.0959 103.68 29.3609C103.832 28.6179 103.572 27.8349 102.727 27.6899C102.262 27.6089 101.678 27.8689 101.407 28.2989C101.155 28.6979 101.066 29.1749 101.066 29.7429C101.066 31.6259 102.491 32.5079 103.581 32.8319C105.243 33.3489 106.345 33.4729 107.873 33.4729C109.9 33.4729 111.545 33.1579 112.721 32.5509C113.898 31.9439 114.718 31.2029 115.155 30.3509C115.617 29.4919 115.838 28.6169 115.838 27.7739C115.838 26.6359 115.593 25.7079 115.117 25.0249C113.579 22.8669 111.395 23.1439 106.487 22.9049C104.125 22.9049 103.67 22.4699 103.67 21.7289C103.67 20.6429 104.545 20.2159 107.964 19.6799C111.328 19.1469 114.464 17.8869 114.464 13.6959C114.464 12.4899 114.187 11.4539 113.854 10.7299C114.55 10.8879 115.198 10.8879 115.791 10.6879C116.471 10.4739 116.911 10.1279 117.166 9.64092C117.422 9.15292 117.48 8.69392 117.338 8.24492C117.113 7.51192 116.727 7.14592 116.172 7.14592C116.016 7.14592 115.847 7.17392 115.665 7.23192ZM104.905 13.8519C104.905 10.9089 105.911 8.71792 108.066 8.71792C110.573 8.71792 111.305 10.7139 111.305 13.7909C111.305 18.1929 109.947 18.7689 108.066 18.7689C106.055 18.7689 104.905 18.0229 104.905 13.8519Z" fill="white"/>
</g>
</g>
</g>
<defs>
<clipPath id="clip0_2_194">
<rect width="153" height="34" fill="white" transform="translate(0.0700684 0.409912)"/>
</clipPath>
<clipPath id="clip1_2_194">
<rect width="153" height="34" fill="white" transform="translate(0.0700684 0.409912)"/>
</clipPath>
<clipPath id="clip2_2_194">
<rect width="153" height="34" fill="white" transform="translate(0.0700684 0.409912)"/>
</clipPath>
</defs>
</svg>
