<svg width="119" height="30" viewBox="0 0 119 30" fill="none" xmlns="http://www.w3.org/2000/svg">
<g opacity="0.2" clip-path="url(#clip0_2_201)">
<g clip-path="url(#clip1_2_201)">
<g clip-path="url(#clip2_2_201)">
<path d="M0.628082 14.979V28.8H5.71908V17.541L7.67008 17.608L9.62208 17.676L12.6131 23.226L15.5831 28.777L18.5101 28.8C20.1031 28.8 21.4171 28.755 21.4171 28.687C21.4171 28.621 20.0601 26.059 18.4261 23.002C16.7721 19.946 15.3931 17.384 15.3501 17.316C15.3071 17.227 15.8171 16.89 16.4941 16.53C18.0441 15.72 19.6141 14.17 20.2931 12.777C21.2251 10.8 21.2691 7.31596 20.3781 5.47296C19.4441 3.56296 17.2801 1.94396 14.8841 1.40596C14.2041 1.24696 11.2141 1.15796 7.20408 1.15796H0.628082V14.979ZM14.1401 6.32696C15.3091 6.88796 15.9011 7.89896 15.9011 9.36096C15.9011 10.709 15.3711 11.743 14.3741 12.327C13.7801 12.664 13.0371 12.754 9.70708 12.8L5.71908 12.889V5.87696H9.49508C12.7401 5.87696 13.3771 5.94496 14.1401 6.32696ZM81.6631 15.203V28.799H86.5421V1.60696H81.6631V15.203ZM108.645 14.349C108.709 24.822 108.709 24.866 109.196 25.923C109.749 27.114 111.063 28.462 112.124 28.934C112.591 29.136 113.652 29.248 115.18 29.248H117.513V24.756H116.155C115.116 24.756 114.692 24.642 114.246 24.284L113.695 23.834V13.294H117.513V9.02296H113.695V3.85296H108.582L108.645 14.349Z" fill="white"/>
<path d="M27.951 9.00091C26.232 9.60891 25.066 10.3709 23.814 11.7639C22.541 13.2259 21.947 14.3489 21.522 16.2599C20.378 21.3839 22.478 26.3049 26.72 28.4389C28.035 29.1149 28.205 29.1359 30.856 29.1359C33.233 29.1359 33.784 29.0699 34.845 28.5969C36.33 27.9679 38.302 26.1249 39.088 24.5969L39.639 23.4949L37.942 22.4399C37.009 21.8559 36.16 21.3839 36.075 21.3839C35.99 21.3839 35.629 21.8329 35.248 22.3719C34.399 23.6759 33.254 24.4629 31.853 24.7539C30.602 25.0019 29.712 24.8669 28.63 24.2829C27.356 23.6089 26.084 21.8329 26.084 20.7089C26.084 20.2589 26.168 20.2589 33.084 20.2589H40.085V18.3729C40.085 14.0569 38.197 10.8659 34.675 9.22491C33.169 8.50691 29.669 8.39391 27.951 9.00091ZM33.678 13.3829C34.23 13.7879 34.76 14.4399 35.099 15.1819L35.651 16.3269L30.942 16.3939C28.353 16.4179 26.189 16.3939 26.126 16.3269C25.829 16.0129 27.356 14.0119 28.417 13.3379C29.499 12.6409 29.69 12.5969 31.196 12.6639C32.553 12.7319 32.935 12.8209 33.678 13.3829ZM66.411 8.91091C63.674 9.72091 61.15 11.8549 60.11 14.2599C59.367 16.0129 59.05 18.7099 59.367 20.7549C60.196 26.0809 63.908 29.2489 69.338 29.2489C72.521 29.2489 74.641 28.4389 76.699 26.4859C77.887 25.3389 78.693 23.9019 79.224 21.9679C79.669 20.3269 79.563 16.6419 79.033 15.0909C78.164 12.5519 75.851 10.1919 73.242 9.20391C71.63 8.57391 68.065 8.43891 66.411 8.91091ZM71.587 13.9449C74.557 15.3389 75.533 19.5409 73.539 22.3279C72.117 24.3049 69.126 25.0469 67.111 23.9239C66.008 23.2929 64.82 21.9009 64.48 20.8229C64.055 19.4729 64.31 17.0679 64.969 16.0129C66.474 13.6069 69.083 12.7999 71.587 13.9449ZM39.934 9.33791C39.998 9.49491 41.694 13.9449 43.71 19.2269L47.38 28.8219L49.693 28.7549L52.005 28.6869L55.59 19.3609C57.563 14.2369 59.239 9.80991 59.302 9.51791L59.43 9.00091L56.841 9.06891L54.233 9.13591L51.984 15.4719C50.753 18.9559 49.671 21.7429 49.608 21.6539C49.523 21.5629 48.483 18.6869 47.275 15.2479L45.068 9.02391H42.437C40.316 9.02391 39.849 9.09091 39.935 9.33791H39.934ZM89.087 15.1579C89.087 18.6189 89.193 21.8779 89.319 22.6199C89.787 25.3619 91.165 27.2479 93.52 28.4389C94.877 29.1139 95.026 29.1359 97.783 29.1359C100.477 29.1359 100.733 29.0919 101.921 28.5069C104.276 27.3389 105.781 25.2939 106.248 22.6199C106.375 21.8779 106.481 18.6189 106.481 15.1579V9.02391H101.623L101.559 15.1359C101.496 21.0009 101.474 21.3159 101.008 22.2149C100.33 23.5629 99.184 24.1479 97.466 24.0349C95.938 23.9459 95.068 23.3829 94.475 22.1239C94.114 21.3609 94.071 20.5969 94.007 15.1359L93.944 9.02391H89.086L89.087 15.1579Z" fill="white"/>
</g>
</g>
</g>
<defs>
<clipPath id="clip0_2_201">
<rect width="118" height="29" fill="white" transform="translate(0.0700684 0.909912)"/>
</clipPath>
<clipPath id="clip1_2_201">
<rect width="118" height="29" fill="white" transform="translate(0.0700684 0.909912)"/>
</clipPath>
<clipPath id="clip2_2_201">
<rect width="118" height="29" fill="white" transform="translate(0.0700684 0.909912)"/>
</clipPath>
</defs>
</svg>
