<svg width="26" height="26" viewBox="0 0 26 26" fill="none" xmlns="http://www.w3.org/2000/svg">
<g clip-path="url(#clip0_2_271)">
<mask id="mask0_2_271" style="mask-type:luminance" maskUnits="userSpaceOnUse" x="0" y="0" width="26" height="26">
<path d="M25.44 0.410034H0.440002V25.41H25.44V0.410034Z" fill="white"/>
</mask>
<g mask="url(#mask0_2_271)">
<path d="M12.94 2.75378C10.9313 2.75378 8.96769 3.34943 7.2975 4.46542C5.62732 5.5814 4.32557 7.16759 3.55686 9.0234C2.78816 10.8792 2.58703 12.9213 2.97891 14.8914C3.3708 16.8615 4.33808 18.6712 5.75846 20.0916C7.17884 21.5119 8.98851 22.4792 10.9586 22.8711C12.9287 23.263 14.9708 23.0619 16.8266 22.2932C18.6824 21.5244 20.2686 20.2227 21.3846 18.5525C22.5006 16.8823 23.0963 14.9187 23.0963 12.91C23.0934 10.2173 22.0225 7.63567 20.1184 5.73162C18.2144 3.82757 15.6327 2.75662 12.94 2.75378ZM18.7164 11.284L14.2095 13.2147L17.4449 17.0975C17.5775 17.2568 17.6414 17.4622 17.6225 17.6686C17.6037 17.875 17.5036 18.0655 17.3443 18.1981C17.185 18.3307 16.9796 18.3946 16.7732 18.3757C16.5668 18.3569 16.3763 18.2568 16.2437 18.0975L12.94 14.1307L9.63435 18.0975C9.50174 18.2568 9.31129 18.3569 9.10489 18.3757C8.89849 18.3946 8.69305 18.3307 8.53376 18.1981C8.37448 18.0655 8.27439 17.875 8.25553 17.6686C8.23667 17.4622 8.30057 17.2568 8.43318 17.0975L11.6705 13.2147L7.16365 11.284C7.06641 11.2457 6.97785 11.1882 6.90322 11.115C6.8286 11.0419 6.76941 10.9544 6.72917 10.858C6.68894 10.7615 6.66846 10.658 6.66897 10.5534C6.66948 10.4489 6.69096 10.3456 6.73213 10.2495C6.77331 10.1534 6.83334 10.0666 6.90868 9.99415C6.984 9.9217 7.07312 9.8651 7.17073 9.82771C7.26834 9.79032 7.37245 9.77289 7.47691 9.77647C7.58138 9.78004 7.68406 9.80453 7.77888 9.84851L12.1588 11.7254V7.24597C12.1588 7.03877 12.2411 6.84005 12.3876 6.69354C12.5341 6.54703 12.7328 6.46472 12.94 6.46472C13.1472 6.46472 13.3459 6.54703 13.4924 6.69354C13.6389 6.84005 13.7213 7.03877 13.7213 7.24597V11.7254L18.1011 9.84851C18.196 9.80453 18.2986 9.78004 18.4031 9.77647C18.5076 9.77289 18.6117 9.79032 18.7093 9.82771C18.8069 9.8651 18.896 9.9217 18.9713 9.99415C19.0467 10.0666 19.1067 10.1534 19.1479 10.2495C19.1891 10.3456 19.2105 10.4489 19.211 10.5534C19.2116 10.658 19.1911 10.7615 19.1508 10.858C19.1106 10.9544 19.0514 11.0419 18.9768 11.115C18.9022 11.1882 18.8136 11.2457 18.7164 11.284Z" fill="#E2FF02"/>
</g>
</g>
<defs>
<clipPath id="clip0_2_271">
<rect width="25" height="25" fill="white" transform="translate(0.440002 0.410034)"/>
</clipPath>
</defs>
</svg>
