<svg style="width:100%;height:100%" viewBox="0 0 60 60" preserveAspectRatio="none" width="100%" height="100%"><use href="#svg-1768026990_1691">
  <svg width="60" height="60" fill="none" id="svg-1768026990_1691"><g clip-path="url(#svg-1768026990_1691_a)" fill="#3e3e3e"><path d="M27.189 32.238h7.27v-2.415h-.796c0 .93-.69 1.62-1.725 1.62h-1.114v-3.636h1.194v-.796h-4.856v.796h1.22v3.635h-1.22v.796h.027Zm10.774 0h2.839l2.388-4.431h1.194v-.823h-3.609v.823h1.035l-1.751 3.237-1.751-3.237h1.273v-.823h-5.254l-.026.823h1.22l2.442 4.431Zm-25.262-5.254H7.447v.823h1.194l2.468 4.431h2.813l2.415-4.431h1.194v-.823h-3.61v.823h1.036l-1.752 3.237-1.777-3.237H12.7v-.823Zm5.545 2.628c0 1.539 1.247 2.786 3.742 2.786 2.494 0 3.715-1.22 3.715-2.786 0-1.512-1.3-2.733-3.742-2.733-2.441 0-3.715 1.22-3.715 2.733Zm5.015.027c-.026.955-.398 1.937-1.326 1.937-.876-.027-1.274-1.009-1.274-1.964.026-1.008.504-1.884 1.326-1.884.85 0 1.3.902 1.274 1.91Zm21.841-.027c0 1.539 1.247 2.786 3.741 2.786 2.494 0 3.715-1.22 3.715-2.786 0-1.512-1.3-2.733-3.741-2.733-2.442 0-3.715 1.22-3.715 2.733Zm3.768-1.91c.822.026 1.273.902 1.247 1.91-.027.955-.398 1.937-1.327 1.937-.902-.026-1.274-1.008-1.274-1.963.027-1.009.505-1.884 1.354-1.884Z"></path><path d="M54.65 12.95 51.6 16a25.73 25.73 0 0 1 4.113 13.985c0 14.223-11.516 25.739-25.74 25.739-14.222 0-25.738-11.516-25.738-25.74 0-14.222 11.516-25.738 25.739-25.738 5.174 0 9.977 1.512 14.01 4.14l3.052-3.052C42.205 1.964 36.315 0 29.973 0 13.44 0 .04 13.427.04 29.958c0 16.532 13.427 29.958 29.958 29.958 16.532 0 29.959-13.426 29.959-29.958 0-6.315-1.964-12.18-5.307-17.009Z"></path><path d="M45.07 1.194v.85c1.831.981 3.53 2.149 5.122 3.449l-4.273 4.272c1.62 1.274 3.079 2.707 4.326 4.325l4.272-4.272a33.051 33.051 0 0 1 3.45 5.095h.822V1.194H45.07Z"></path></g><defs><clipPath id="svg-1768026990_1691_a"><path fill="#3e3e3e" d="M0 0h60v60H0z"></path></clipPath></defs></svg>
</use></svg>