<svg width="135" height="35" viewBox="0 0 135 35" fill="none" xmlns="http://www.w3.org/2000/svg">
<g clip-path="url(#clip0_2_974)">
<g clip-path="url(#clip1_2_974)">
<mask id="mask0_2_974" style="mask-type:luminance" maskUnits="userSpaceOnUse" x="1" y="0" width="133" height="35">
<path d="M1.33804 0.890137H133.338V34.7281H1.33804V0.890137Z" fill="white"/>
</mask>
<g mask="url(#mask0_2_974)">
<g opacity="0.8">
<path d="M49.196 8.97591L42.465 26.7089H45.905L47.336 22.5629H54.343L55.75 26.7089H59.216L52.736 8.97591H49.196ZM48.116 20.0519C49.673 15.7069 50.301 13.9479 50.877 12.1649C51.707 14.7519 52.561 17.1639 53.557 20.0519H48.116ZM67.315 13.9559C66.5575 13.9463 65.8084 14.1157 65.1288 14.4504C64.4492 14.7851 63.8582 15.2756 63.404 15.8819V8.97691H60.459V26.7099H63.272V25.0769C64.128 26.3069 65.282 26.9609 66.99 26.9609C70.08 26.9609 72.14 24.5489 72.14 20.4549C72.14 16.3609 70.255 13.9569 67.315 13.9569V13.9559ZM66.262 24.5099C64.402 24.5099 63.322 22.9799 63.322 20.3229C63.322 17.9369 64.578 16.4299 66.362 16.4299C68.037 16.4299 69.074 17.9619 69.074 20.4729C69.074 23.1179 67.996 24.4989 66.262 24.4989V24.5099ZM78.318 16.0879C79.525 16.0879 80.48 16.7409 81.108 17.8479L83.298 16.3649C82.19 14.6039 80.354 13.8519 78.368 13.8519C75.274 13.8519 73.51 15.6619 73.51 17.6239C73.51 19.5359 74.7411 20.6679 76.678 21.2709L78.018 21.6979C79.904 22.3009 80.331 22.6529 80.331 23.4839C80.331 24.2379 79.627 24.7919 78.344 24.7919C76.961 24.7919 75.804 24.0369 75.152 22.7539L72.863 24.2609C73.919 25.8459 75.654 27.0789 78.223 27.0789C81.343 27.0789 83.278 25.3939 83.278 23.0789C83.278 21.0689 82.021 20.0359 79.808 19.3309L78.468 18.9289C76.858 18.4269 76.458 18.0749 76.458 17.3209C76.458 16.5669 77.055 16.0879 78.318 16.0879ZM89.25 22.8339V16.5649H91.673V14.2079H89.25V10.1199H86.323L86.266 14.2099H84.31V16.5659H86.266V23.4179C86.266 24.5769 86.444 25.4599 86.971 26.0639C87.499 26.6689 88.3111 26.9709 89.539 26.9709C90.2807 26.9688 91.0191 26.8737 91.737 26.6879V24.3399C91.35 24.4829 90.941 24.5599 90.527 24.5659C89.617 24.5749 89.25 24.1229 89.25 22.8339ZM96.15 16.1339V14.2089H93.336V26.7719H96.284V20.9099C96.284 19.5699 96.505 18.6859 96.939 18.0329C97.485 17.2489 98.266 16.7749 99.619 16.7899C99.985 16.7959 100.348 16.8519 100.698 16.9569V14.2099C100.349 14.0975 99.9853 14.0408 99.619 14.0419C97.887 14.0469 96.9071 14.7779 96.15 16.1339ZM111.989 23.3369V18.8139C111.989 16.8509 111.726 15.8199 110.945 15.0899C110.108 14.2839 108.907 13.8819 107.196 13.8819C104 13.8819 101.983 15.3899 101.782 18.1099L104.605 18.3619C104.756 16.9779 105.434 16.1969 106.97 16.1969C107.751 16.1969 108.354 16.3649 108.706 16.7249C109.057 17.0849 109.185 17.5309 109.185 18.2329V18.9029C107.196 19.0299 104.781 19.3819 103.548 19.9339C102.064 20.6139 101.258 21.6719 101.258 23.2839C101.258 25.5239 102.868 26.9599 105.158 26.9599C106.943 26.9599 108.302 26.3319 109.258 25.1739C109.531 26.4259 110.412 26.8879 111.987 26.8879C112.442 26.8969 112.895 26.8289 113.327 26.6869V24.7769C112.195 24.9819 111.997 24.3169 111.989 23.3369ZM109.185 21.4499C109.158 22.1539 109.034 22.8599 108.63 23.4389C108.077 24.2679 107.146 24.7469 106.014 24.7469C104.705 24.7469 104.101 24.0669 104.101 23.1619C104.101 22.4569 104.402 21.9779 105.183 21.6259C106.064 21.1989 107.751 20.9459 109.185 20.8709V21.4509V21.4499ZM120.062 24.6049C118.127 24.6049 116.97 23.1479 116.97 20.3839C116.97 17.5939 118.278 16.3139 119.985 16.3139C121.166 16.3139 122.07 16.8659 122.424 18.5239L125.064 17.6199C124.484 15.3839 122.776 13.8499 120.058 13.8499C116.313 13.8499 113.949 16.3379 113.949 20.4339C113.949 24.5549 116.263 27.0679 119.908 27.0679C122.755 27.0679 124.409 25.5599 125.139 23.4739L122.499 22.5699C122.199 23.9019 121.395 24.6049 120.062 24.6049ZM130.737 22.8339V16.5649H133.158V14.2079H130.737V10.1199H127.811L127.759 14.2099H125.801V16.5659H127.764V23.4179C127.764 24.5769 127.942 25.4599 128.469 26.0639C128.997 26.6689 129.809 26.9709 131.037 26.9709C131.775 26.9677 132.509 26.8727 133.223 26.6879V24.3399C132.836 24.4829 132.428 24.5599 132.016 24.5659C131.108 24.5749 130.737 24.1229 130.737 22.8339ZM18.168 1.05691C4.76804 1.02191 1.40804 4.36391 1.37304 17.7649C1.33804 31.1659 4.67804 34.5249 18.08 34.5599C31.482 34.5949 34.842 31.2529 34.877 17.8519C34.912 4.45191 31.57 1.09191 18.169 1.05691H18.168ZM15.376 26.9699C14.1076 26.9701 12.8676 26.5942 11.8129 25.8896C10.7582 25.1851 9.93603 24.1836 9.45049 23.0118C8.96495 21.8399 8.83781 20.5505 9.08515 19.3064C9.33248 18.0623 9.94318 16.9196 10.84 16.0226C11.7368 15.1256 12.8795 14.5147 14.1236 14.2672C15.3676 14.0197 16.6571 14.1466 17.829 14.632C19.0008 15.1173 20.0025 15.9393 20.7072 16.9939C21.4119 18.0486 21.788 19.2885 21.788 20.5569C21.7862 22.257 21.1101 23.8869 19.908 25.0892C18.706 26.2914 17.0761 26.9678 15.376 26.9699ZM27.023 26.7069H23.883V12.0499H9.22404V8.90991H27.022V26.7059L27.023 26.7069Z" fill="white"/>
<path d="M15.375 17.2861C14.9453 17.2861 14.5197 17.3708 14.1227 17.5352C13.7257 17.6997 13.3649 17.9407 13.061 18.2446C12.7572 18.5485 12.5161 18.9093 12.3516 19.3063C12.1872 19.7033 12.1025 20.1289 12.1025 20.5586C12.1025 20.9884 12.1872 21.4139 12.3516 21.811C12.5161 22.208 12.7572 22.5688 13.061 22.8726C13.3649 23.1765 13.7257 23.4176 14.1227 23.582C14.5197 23.7465 14.9453 23.8311 15.375 23.8311C16.2428 23.8311 17.0751 23.4864 17.6887 22.8728C18.3023 22.2592 18.647 21.4269 18.647 20.5591C18.647 19.6913 18.3023 18.8591 17.6887 18.2455C17.0751 17.6319 16.2428 17.2861 15.375 17.2861Z" fill="white"/>
</g>
</g>
</g>
</g>
<defs>
<clipPath id="clip0_2_974">
<rect width="134" height="34" fill="white" transform="translate(0.170044 0.890137)"/>
</clipPath>
<clipPath id="clip1_2_974">
<rect width="133" height="34" fill="white" transform="translate(0.670044 0.890137)"/>
</clipPath>
</defs>
</svg>
