<svg width="141" height="34" viewBox="0 0 141 34" fill="none" xmlns="http://www.w3.org/2000/svg">
<g clip-path="url(#clip0_2_884)">
<g clip-path="url(#clip1_2_884)">
<mask id="mask0_2_884" style="mask-type:luminance" maskUnits="userSpaceOnUse" x="0" y="0" width="141" height="33">
<path d="M0.5 0.890137H140.5V32.9061H0.5V0.890137Z" fill="white"/>
</mask>
<g mask="url(#mask0_2_884)">
<g opacity="0.8">
<path d="M48.678 11.9742C48.678 11.3062 48.163 10.7582 47.442 10.7582C46.72 10.7582 46.205 11.3062 46.205 11.9742V21.8392C46.205 22.5072 46.72 23.0552 47.441 23.0552C48.18 23.0552 48.678 22.5072 48.678 21.8392V11.9742ZM60.855 10.7582C60.134 10.7582 59.635 11.3062 59.635 11.9742V16.1872L59.705 19.9552L58.21 16.4272L56.253 12.4192C55.652 11.1692 54.965 10.7592 53.986 10.7592C52.544 10.7592 51.908 11.6662 51.908 12.9672V21.8392C51.908 22.5072 52.406 23.0552 53.128 23.0552C53.848 23.0552 54.347 22.5072 54.347 21.8392L54.33 17.6772L54.278 13.4132L55.875 17.3172L57.85 21.3932C58.468 22.6952 59.12 23.0722 60.116 23.0722C61.404 23.0722 62.074 22.2842 62.074 20.8282V11.9742C62.074 11.3062 61.577 10.7582 60.855 10.7582ZM71.19 13.2762L73.99 13.3442C74.642 13.3622 75.157 12.8642 75.157 12.1452C75.157 11.4262 74.642 10.9302 73.99 10.9302L65.884 10.9132C65.249 10.9132 64.717 11.4092 64.717 12.1282C64.717 12.8482 65.249 13.3442 65.884 13.3282L68.701 13.2762V21.8392C68.701 22.5072 69.216 23.0552 69.937 23.0552C70.675 23.0552 71.191 22.5072 71.191 21.8392L71.19 13.2762ZM79.49 22.9002H85.516C86.152 22.9002 86.667 22.4202 86.667 21.7532C86.667 21.0682 86.152 20.5882 85.517 20.5882L80.279 20.6052V17.7452H84.812C85.431 17.7452 85.929 17.2832 85.929 16.6492C85.929 15.9992 85.431 15.5362 84.812 15.5362L80.279 15.5702V13.2072H85.516C86.152 13.2072 86.667 12.7272 86.667 12.0422C86.667 11.3572 86.152 10.8952 85.517 10.8952L79.507 10.9122C78.407 10.9122 77.789 11.5292 77.789 12.6252V21.1882C77.789 22.2842 78.408 22.9002 79.49 22.9002ZM96.484 18.0202C98.115 17.5922 99.077 16.3242 99.077 14.6462C99.077 12.7792 97.857 10.9132 94.939 10.9132H91.16C90.06 10.9132 89.442 11.5292 89.442 12.6252V21.8392C89.442 22.5072 89.958 23.0552 90.713 23.0552C91.452 23.0552 91.983 22.5072 91.983 21.8392L91.967 18.6192H94.045L96.157 22.4212C96.5 23.0032 97.221 23.2432 97.891 22.9012C98.561 22.5412 98.75 21.8212 98.389 21.2392L96.483 18.0192L96.484 18.0202ZM91.968 13.1902H94.956C95.969 13.1902 96.604 13.8242 96.604 14.7662C96.604 15.6912 96.004 16.3762 94.99 16.3762H91.968V13.1902ZM106.661 23.1242C109.168 23.1242 110.782 21.9942 111.332 20.1612C111.624 19.1162 111.006 18.3632 110.078 18.3632C109.512 18.3632 109.134 18.6532 108.911 19.2872C108.567 20.2472 107.726 20.8462 106.524 20.8462C104.618 20.8462 103.793 19.5612 103.793 16.8902C103.793 14.2702 104.635 13.0202 106.524 13.0202C107.709 13.0202 108.396 13.5162 108.825 14.6632C109.065 15.3142 109.46 15.6052 110.044 15.6052C110.937 15.6052 111.589 14.8862 111.315 13.8932C110.765 11.8722 109.168 10.7422 106.592 10.7422C103.055 10.7422 101.252 12.8992 101.252 16.8902C101.252 20.9142 103.055 23.1242 106.661 23.1242ZM118.87 23.0892C122.51 23.0892 124.313 20.8622 124.313 16.8892C124.313 12.8812 122.459 10.6722 118.87 10.6722C115.264 10.6722 113.46 12.9162 113.443 16.8892C113.443 20.8792 115.281 23.0892 118.87 23.0892ZM118.87 20.7942C116.843 20.7942 115.968 19.5092 115.968 16.8892C115.968 14.2342 116.861 12.9502 118.853 12.9502C120.862 12.9502 121.806 14.2342 121.789 16.8892C121.789 19.5262 120.896 20.7942 118.87 20.7942ZM140.299 12.9002C140.299 11.5462 139.458 10.7422 138.152 10.7422C137.088 10.7422 136.281 11.3242 135.886 12.6602L134.564 16.9582L133.688 20.0582L132.846 16.9582L131.438 12.6602C131.043 11.4102 130.356 10.7422 129.154 10.7422C127.832 10.7422 127.008 11.5292 127.008 12.8992V21.8392C127.008 22.5072 127.489 23.0552 128.193 23.0552C128.897 23.0552 129.378 22.5072 129.378 21.8392L129.36 17.5232L129.24 12.8992L130.597 17.6262L132.039 21.8052C132.348 22.7302 132.932 23.0382 133.688 23.0382C134.392 23.0382 134.958 22.7812 135.25 21.8392L136.624 17.6262L138.084 12.8662L137.946 17.5242V21.8392C137.946 22.5072 138.444 23.0552 139.131 23.0552C139.835 23.0552 140.316 22.5072 140.316 21.8392L140.299 12.8992V12.9002ZM28.296 18.5082C28.296 18.7932 28.183 19.0672 27.983 19.2682C27.8841 19.3678 27.7665 19.4469 27.6369 19.5008C27.5073 19.5548 27.3684 19.5825 27.228 19.5825C27.0876 19.5825 26.9487 19.5548 26.8191 19.5008C26.6895 19.4469 26.5719 19.3678 26.473 19.2682C26.2726 19.0661 26.1601 18.7929 26.16 18.5082V8.89424C26.16 8.60924 26.273 8.33524 26.473 8.13424C26.5719 8.03464 26.6895 7.9556 26.8191 7.90166C26.9487 7.84772 27.0876 7.81995 27.228 7.81995C27.3684 7.81995 27.5073 7.84772 27.6369 7.90166C27.7665 7.9556 27.8841 8.03464 27.983 8.13424C28.183 8.33524 28.296 8.60924 28.296 8.89424V18.5082ZM27.926 25.1682C27.784 25.3112 23.813 28.6462 16.533 28.6462C9.253 28.6462 5.31 25.3302 5.141 25.1862C5.03496 25.0965 4.94769 24.9867 4.8842 24.8631C4.8207 24.7396 4.78223 24.6047 4.771 24.4662C4.74793 24.1857 4.83672 23.9075 5.018 23.6922C5.20199 23.4786 5.46313 23.3465 5.74425 23.325C6.02538 23.3034 6.30359 23.3941 6.518 23.5772C6.58 23.6212 10.127 26.5212 16.524 26.5212C22.922 26.5212 26.496 23.6042 26.531 23.5772C26.7474 23.3949 27.0268 23.3047 27.309 23.3262C27.5912 23.3477 27.8537 23.4792 28.04 23.6922C28.2204 23.9045 28.3103 24.179 28.2905 24.4569C28.2706 24.7347 28.1427 24.9937 27.934 25.1782L27.925 25.1682H27.926ZM4.761 8.89524C4.77686 8.60962 4.90436 8.34169 5.116 8.14924C5.328 7.95724 5.606 7.85824 5.89 7.87224C6.15423 7.88895 6.403 8.00258 6.58864 8.19135C6.77428 8.38012 6.88372 8.63076 6.896 8.89524V18.4902C6.896 18.7752 6.784 19.0492 6.584 19.2502C6.48517 19.35 6.36757 19.4291 6.23798 19.4831C6.1084 19.5371 5.96939 19.5649 5.829 19.5649C5.68861 19.5649 5.5496 19.5371 5.42002 19.4831C5.29043 19.4291 5.17283 19.35 5.074 19.2502C4.87358 19.0481 4.76109 18.7749 4.761 18.4902V8.89424V8.89524ZM10.118 6.76024C10.134 6.47324 10.262 6.20524 10.474 6.01324C10.6768 5.8283 10.9434 5.72924 11.2178 5.73689C11.4921 5.74453 11.7528 5.85829 11.945 6.05424C12.131 6.24324 12.241 6.49424 12.254 6.76024V20.9892C12.254 21.2742 12.141 21.5492 11.941 21.7492C11.8421 21.8488 11.7245 21.9279 11.5949 21.9818C11.4653 22.0358 11.3264 22.0635 11.186 22.0635C11.0456 22.0635 10.9067 22.0358 10.7771 21.9818C10.6475 21.9279 10.5299 21.8488 10.431 21.7492C10.2306 21.5471 10.1181 21.2739 10.118 20.9892V6.76024ZM15.501 6.22624C15.501 5.94124 15.613 5.66724 15.814 5.46624C15.9129 5.36664 16.0305 5.2876 16.1601 5.23366C16.2897 5.17972 16.4286 5.15195 16.569 5.15195C16.7094 5.15195 16.8483 5.17972 16.9779 5.23366C17.1075 5.2876 17.2251 5.36664 17.324 5.46624C17.524 5.66724 17.636 5.94124 17.636 6.22624V21.7002C17.636 21.9862 17.524 22.2602 17.324 22.4612C17.2252 22.561 17.1076 22.6401 16.978 22.6941C16.8484 22.7481 16.7094 22.7759 16.569 22.7759C16.4286 22.7759 16.2896 22.7481 16.16 22.6941C16.0304 22.6401 15.9128 22.561 15.814 22.4612C15.6137 22.259 15.5012 21.9859 15.501 21.7012V6.22624ZM20.795 6.76024C20.795 6.47424 20.908 6.20024 21.108 5.99924C21.2068 5.89952 21.3244 5.82037 21.454 5.76636C21.5836 5.71234 21.7226 5.68453 21.863 5.68453C22.0034 5.68453 22.1424 5.71234 22.272 5.76636C22.4016 5.82037 22.5192 5.89952 22.618 5.99924C22.818 6.20124 22.931 6.47424 22.931 6.75924V20.9902C22.931 21.2752 22.818 21.5502 22.618 21.7502C22.5191 21.8498 22.4015 21.9289 22.2719 21.9828C22.1423 22.0368 22.0034 22.0645 21.863 22.0645C21.7226 22.0645 21.5837 22.0368 21.4541 21.9828C21.3245 21.9289 21.2069 21.8498 21.108 21.7502C20.9076 21.5481 20.7951 21.2749 20.795 20.9902V6.76024ZM28.587 0.890237H4.515C3.98964 0.886497 3.46878 0.987307 2.98275 1.1868C2.49672 1.38629 2.05524 1.68048 1.684 2.05224C0.928509 2.80455 0.502642 3.82606 0.5 4.89224L0.5 28.9042C0.505473 29.9698 0.930908 30.9903 1.684 31.7442C2.05592 32.1148 2.49739 32.4082 2.98305 32.6076C3.46871 32.807 3.989 32.9085 4.514 32.9062H28.587C29.1116 32.91 29.6318 32.8094 30.1173 32.6105C30.6028 32.4115 31.0439 32.1181 31.415 31.7472C32.1703 30.997 32.5972 29.9778 32.602 28.9132V4.89324C32.5975 3.82881 32.1735 2.80907 31.422 2.05524C31.0507 1.68449 30.6098 1.39073 30.1247 1.19081C29.6395 0.990889 29.1197 0.888743 28.595 0.890237" fill="white"/>
</g>
</g>
</g>
</g>
<defs>
<clipPath id="clip0_2_884">
<rect width="141" height="33" fill="white" transform="translate(0 0.890137)"/>
</clipPath>
<clipPath id="clip1_2_884">
<rect width="140" height="33" fill="white" transform="translate(0.5 0.890137)"/>
</clipPath>
</defs>
</svg>
