<svg width="112" height="34" viewBox="0 0 112 34" fill="none" xmlns="http://www.w3.org/2000/svg">
<g clip-path="url(#clip0_2_799)">
<mask id="mask0_2_799" style="mask-type:luminance" maskUnits="userSpaceOnUse" x="0" y="0" width="111" height="34">
<path d="M0.664032 0.890137H110.664V33.8901H0.664032V0.890137Z" fill="white"/>
</mask>
<g mask="url(#mask0_2_799)">
<path d="M33.675 15.6631H23.619L32.327 10.6361L30.6 7.64414L21.89 12.6711L26.918 3.96414L23.926 2.23814L18.898 10.9421V0.890137H15.44V10.9431L10.412 2.23714L7.42002 3.96514L12.447 12.6691L3.74003 7.64414L2.01002 10.6361L10.72 15.6631H0.663025V19.1181H10.718L2.01002 24.1451L3.73703 27.1371L12.447 22.1101L7.41902 30.8171L10.411 32.5441L15.441 23.8381V33.8901H18.897V23.6231L24.017 32.4891L26.823 30.8691L21.702 22.0011L30.597 27.1361L32.325 24.1441L23.618 19.1171H33.673V15.6631H33.675ZM17.17 22.0871C16.0825 22.0886 15.0281 21.7126 14.1869 21.0233C13.3456 20.334 12.7697 19.3742 12.5572 18.3076C12.3448 17.241 12.5091 16.1337 13.0221 15.1747C13.535 14.2157 14.3649 13.4645 15.37 13.0491C16.2285 12.6937 17.1731 12.6008 18.0844 12.782C18.9956 12.9631 19.8328 13.4104 20.49 14.0671C21.1469 14.724 21.5943 15.561 21.7757 16.4721C21.957 17.3832 21.8642 18.3277 21.5088 19.1861C21.1535 20.0444 20.5516 20.7782 19.7794 21.2946C19.0071 21.8109 18.099 22.0867 17.17 22.0871Z" fill="white" fill-opacity="0.4"/>
<path d="M42.584 29.4603V5.32031H47.014V29.4603H42.584ZM85.08 13.0553H89.31V15.0573C90.21 13.4573 92.31 12.5883 94.109 12.5883C96.342 12.5883 98.141 13.5563 98.973 15.3223C100.271 13.3203 102.005 12.5883 104.171 12.5883C107.202 12.5883 110.1 14.4223 110.1 18.8233V29.4603H105.803V19.7243C105.803 17.9573 104.936 16.6223 102.904 16.6223C101.004 16.6223 99.871 18.0913 99.871 19.8583V29.4613H95.475V19.7243C95.475 17.9573 94.575 16.6223 92.575 16.6223C90.643 16.6223 89.51 18.0583 89.51 19.8583V29.4613H85.08V13.0553ZM57.028 29.9353C52.036 29.9353 48.422 26.2323 48.422 21.2583C48.422 16.3633 52.025 12.5723 57.028 12.5723C62.055 12.5723 65.634 16.3983 65.634 21.2583C65.634 26.1973 62.018 29.9353 57.028 29.9353ZM57.028 16.5873C55.7898 16.5889 54.6028 17.0818 53.7276 17.9577C52.8524 18.8336 52.3605 20.0211 52.36 21.2593C52.3611 22.4973 52.8531 23.6843 53.7282 24.56C54.6033 25.4356 55.79 25.9285 57.028 25.9303C58.2658 25.9282 59.4523 25.4353 60.3272 24.5596C61.202 23.684 61.694 22.4971 61.695 21.2593C61.6942 20.0213 61.2024 18.8342 60.3275 17.9584C59.4526 17.0825 58.266 16.5894 57.028 16.5873ZM75.098 29.9363C70.106 29.9363 66.491 26.2323 66.491 21.2583C66.491 16.3633 70.095 12.5723 75.098 12.5723C80.125 12.5723 83.704 16.3983 83.704 21.2583C83.704 26.1973 80.085 29.9363 75.098 29.9363ZM75.098 16.5313C73.8456 16.5332 72.6451 17.0316 71.7597 17.9174C70.8743 18.8032 70.3763 20.0039 70.375 21.2563C70.3761 22.5089 70.8739 23.7099 71.7593 24.5959C72.6448 25.4819 73.8454 25.9805 75.098 25.9823C76.3504 25.9802 77.5508 25.4815 78.436 24.5955C79.3213 23.7096 79.819 22.5087 79.82 21.2563C79.8187 20.0041 79.3209 18.8035 78.4357 17.9178C77.5505 17.032 76.3502 16.5334 75.098 16.5313Z" fill="white"/>
</g>
</g>
<defs>
<clipPath id="clip0_2_799">
<rect width="111" height="33" fill="white" transform="translate(0.330017 0.890137)"/>
</clipPath>
</defs>
</svg>
